<svg width="15" height="13" viewBox="0 0 15 13" fill="none" xmlns="http://www.w3.org/2000/svg">
<path fill-rule="evenodd" clip-rule="evenodd" d="M2.62004 10.06C2.66399 10.0124 2.7171 9.97418 2.77618 9.9476C2.83526 9.92101 2.8991 9.90662 2.96388 9.9053H13.7674C13.8131 9.90594 13.8576 9.91978 13.8957 9.94514C13.9337 9.97051 13.9636 10.0063 13.9818 10.0483C13.9999 10.0902 14.0056 10.1365 13.998 10.1816C13.9905 10.2267 13.9701 10.2687 13.9393 10.3024L11.6493 12.8451C11.6054 12.8927 11.5523 12.931 11.4932 12.9576C11.4341 12.9842 11.3702 12.9985 11.3055 12.9999H0.495099C0.449389 12.9992 0.404838 12.9854 0.366805 12.96C0.328772 12.9347 0.298877 12.8988 0.280716 12.8569C0.262554 12.8149 0.2569 12.7686 0.264433 12.7235C0.271967 12.6785 0.292366 12.6365 0.323179 12.6027L2.62004 10.06ZM13.9496 7.95228C13.9804 7.98605 14.0008 8.028 14.0084 8.07309C14.0159 8.11818 14.0102 8.16449 13.9921 8.20644C13.9739 8.24839 13.944 8.28421 13.906 8.30957C13.868 8.33494 13.8234 8.34877 13.7777 8.34942L2.97076 8.35801C2.90598 8.35669 2.84214 8.3423 2.78306 8.31571C2.72397 8.28913 2.67087 8.25089 2.62692 8.20328L0.31974 5.66917C0.288928 5.6354 0.268528 5.59345 0.260995 5.54836C0.253462 5.50327 0.259116 5.45696 0.277277 5.41501C0.295439 5.37306 0.325334 5.33724 0.363367 5.31188C0.401399 5.28652 0.445951 5.27268 0.491661 5.27204L11.2986 5.26344C11.3634 5.26476 11.4272 5.27915 11.4863 5.30574C11.5454 5.33233 11.5985 5.37057 11.6424 5.41817L13.9496 7.95228ZM2.62004 0.776311C2.66399 0.728708 2.7171 0.690468 2.77618 0.66388C2.83526 0.637293 2.8991 0.622906 2.96388 0.621582L13.7743 0.630178C13.82 0.630822 13.8645 0.644658 13.9025 0.670022C13.9406 0.695387 13.9705 0.731199 13.9886 0.773152C14.0068 0.815104 14.0125 0.861411 14.0049 0.906501C13.9974 0.951591 13.977 0.993544 13.9462 1.02731L11.6493 3.56143C11.6054 3.60903 11.5523 3.64727 11.4932 3.67386C11.4341 3.70044 11.3702 3.71483 11.3055 3.71615H0.495099C0.449389 3.71551 0.404838 3.70167 0.366805 3.67631C0.328772 3.65095 0.298877 3.61513 0.280716 3.57318C0.262554 3.53123 0.2569 3.48492 0.264433 3.43983C0.271967 3.39474 0.292366 3.35279 0.323179 3.31902L2.62004 0.776311Z" fill="white"/>
</svg>
